<svg xmlns="http://www.w3.org/2000/svg" viewBox="0 0 56 54"><defs><style>.cls-2{fill:#fa0f00}</style></defs><g id="Layer_2" data-name="Layer 2"><g id="Surfaces"><g id="Spark_Surface" data-name="Spark Surface"><rect width="56" height="54" rx="9.91" fill="#370000" id="Outline_no_shadow" data-name="Outline no shadow"/></g></g><g id="Outlined_Mnemonics_Logos" data-name="Outlined Mnemonics &amp; Logos"><g id="Sp"><path class="cls-2" d="M18.05 38.37A18.68 18.68 0 0114.3 38a12.08 12.08 0 01-2.83-.91c-.2-.09-.3-.3-.3-.62v-4.12a.22.22 0 01.09-.2.25.25 0 01.25 0 11.84 11.84 0 003.29 1.17 12.74 12.74 0 003.4.48 5.28 5.28 0 003-.65 1.91 1.91 0 00.9-1.61 2.13 2.13 0 00-.29-1.12 3.1 3.1 0 00-1-1 11.61 11.61 0 00-2-1l-1.85-.78a13.89 13.89 0 01-3.54-2.05 6 6 0 01-1.75-2.35 7.53 7.53 0 01-.49-2.7 6.64 6.64 0 014-6.2 11.25 11.25 0 014.89-1 22.84 22.84 0 013.31.23 7.22 7.22 0 012.39.71.52.52 0 01.26.48v3.89c0 .05 0 .1-.1.16s-.14.06-.24 0a9.9 9.9 0 00-2.5-.65 14.11 14.11 0 00-3.19-.25 7.28 7.28 0 00-1.81.19 4.24 4.24 0 00-1.2.46 1.69 1.69 0 00-.68.7 1.89 1.89 0 00-.23.87 1.72 1.72 0 00.34 1.06 3.75 3.75 0 001.11.92 22.66 22.66 0 002.14 1.09l1.37.52a15 15 0 013.81 2.13 6.47 6.47 0 011.93 2.44 7.21 7.21 0 01.55 2.83A6.5 6.5 0 0126.18 35a7.44 7.44 0 01-3.24 2.53 12.2 12.2 0 01-4.89.84zM37.85 19.24A10.7 10.7 0 0142 20a8.21 8.21 0 012.89 2 8.68 8.68 0 011.72 2.87 9.88 9.88 0 01.57 3.36 9.76 9.76 0 01-.94 4.44 9.25 9.25 0 01-2.57 3.17 11.35 11.35 0 01-3.65 1.9 13.84 13.84 0 01-4.16.63H34.75v5.72a.31.31 0 01-.3.33c-.37 0-.4.06-.9.11l-1.46.15-1.22.11a3.87 3.87 0 00-.63.07c-.15 0-.23-.1-.23-.29V23.39v-.74-.95a5.74 5.74 0 00-.06-.72.2.2 0 01.15-.22c.62-.22 1.33-.44 2.13-.67s1.68-.41 2.63-.59a17 17 0 012.99-.26zm-.44 4.37a8.16 8.16 0 00-1.15.07c-.35.05-1.11.13-1.48.23V34c.15 0 .75 0 1 .05h.57a6.63 6.63 0 002.61-.54 4.85 4.85 0 002.13-1.75 5.52 5.52 0 00.85-3.22 5.26 5.26 0 00-1.18-3.67 4.29 4.29 0 00-3.35-1.26z"/></g></g></g></svg>